<?xml version="1.0" encoding="UTF-8" standalone="no"?>
<!DOCTYPE svg PUBLIC "-//W3C//DTD SVG 1.1//EN"
 "http://www.w3.org/Graphics/SVG/1.1/DTD/svg11.dtd">
<!-- Generated by graphviz version 2.43.0 (0)
 -->
<!-- Title: G Pages: 1 -->
<svg width="1288pt" height="566pt"
 viewBox="0.00 0.00 1287.80 566.00" xmlns="http://www.w3.org/2000/svg" xmlns:xlink="http://www.w3.org/1999/xlink">
<g id="graph0" class="graph" transform="scale(1 1) rotate(0) translate(4 562)">
<title>G</title>
<polygon fill="white" stroke="transparent" points="-4,4 -4,-562 1283.8,-562 1283.8,4 -4,4"/>
<!-- Sensor Data -->
<g id="node1" class="node">
<title>Sensor Data</title>
<polygon fill="none" stroke="black" points="1056.8,-471 952.8,-471 952.8,-435 1056.8,-435 1056.8,-471"/>
<text text-anchor="middle" x="1004.8" y="-449.3" font-family="Times,serif" font-size="14.00">Sensor Data</text>
</g>
<!-- Enrich -->
<g id="node2" class="node">
<title>Enrich</title>
<ellipse fill="none" stroke="black" cx="991.8" cy="-366" rx="41.69" ry="18"/>
<text text-anchor="middle" x="991.8" y="-362.3" font-family="Times,serif" font-size="14.00">Enrich</text>
</g>
<!-- Sensor Data&#45;&gt;Enrich -->
<g id="edge1" class="edge">
<title>Sensor Data&#45;&gt;Enrich</title>
<path fill="none" stroke="black" d="M1025.42,-434.93C1034.2,-425.49 1041.31,-413.41 1035.8,-402 1033.14,-396.48 1029.14,-391.56 1024.61,-387.28"/>
<polygon fill="black" stroke="black" points="1026.58,-384.37 1016.65,-380.69 1022.12,-389.77 1026.58,-384.37"/>
</g>
<!-- PostGIS -->
<g id="node3" class="node">
<title>PostGIS</title>
<ellipse fill="none" stroke="blue" cx="1000.8" cy="-192" rx="48.19" ry="18"/>
<text text-anchor="middle" x="1000.8" y="-188.3" font-family="Times,serif" font-size="14.00">PostGIS</text>
</g>
<!-- Sensor Data&#45;&gt;PostGIS -->
<g id="edge2" class="edge">
<title>Sensor Data&#45;&gt;PostGIS</title>
<path fill="none" stroke="lightblue" d="M1034.19,-434.83C1070.91,-410.92 1126.98,-364.87 1109.8,-315 1095.22,-272.65 1057.24,-236.19 1030.23,-214.42"/>
<polygon fill="lightblue" stroke="lightblue" points="1032.26,-211.57 1022.24,-208.15 1027.94,-217.08 1032.26,-211.57"/>
<text text-anchor="middle" x="1170.3" y="-318.8" font-family="Times,serif" font-size="14.00">implementedBy</text>
</g>
<!-- Integrated Data -->
<g id="node9" class="node">
<title>Integrated Data</title>
<polygon fill="none" stroke="black" points="786.3,-297 655.3,-297 655.3,-261 786.3,-261 786.3,-297"/>
<text text-anchor="middle" x="720.8" y="-275.3" font-family="Times,serif" font-size="14.00">Integrated Data</text>
</g>
<!-- Enrich&#45;&gt;Integrated Data -->
<g id="edge26" class="edge">
<title>Enrich&#45;&gt;Integrated Data</title>
<path fill="none" stroke="black" d="M950.08,-365.32C904.74,-364.11 831.23,-357.5 774.8,-330 762.3,-323.91 750.66,-313.95 741.42,-304.52"/>
<polygon fill="black" stroke="black" points="743.92,-302.08 734.54,-297.15 738.81,-306.85 743.92,-302.08"/>
</g>
<!-- Lambda -->
<g id="node15" class="node">
<title>Lambda</title>
<ellipse fill="none" stroke="blue" cx="1000.8" cy="-279" rx="48.19" ry="18"/>
<text text-anchor="middle" x="1000.8" y="-275.3" font-family="Times,serif" font-size="14.00">Lambda</text>
</g>
<!-- Enrich&#45;&gt;Lambda -->
<g id="edge27" class="edge">
<title>Enrich&#45;&gt;Lambda</title>
<path fill="none" stroke="lightblue" d="M991.28,-347.81C991.21,-338.14 991.47,-325.86 992.8,-315 993.13,-312.31 993.58,-309.52 994.1,-306.75"/>
<polygon fill="lightblue" stroke="lightblue" points="997.53,-307.48 996.19,-296.97 990.68,-306.01 997.53,-307.48"/>
<text text-anchor="middle" x="1049.3" y="-318.8" font-family="Times,serif" font-size="14.00">implementedBy</text>
</g>
<!-- Sagemaker -->
<g id="node18" class="node">
<title>Sagemaker</title>
<ellipse fill="none" stroke="blue" cx="746.8" cy="-105" rx="63.09" ry="18"/>
<text text-anchor="middle" x="746.8" y="-101.3" font-family="Times,serif" font-size="14.00">Sagemaker</text>
</g>
<!-- Enrich&#45;&gt;Sagemaker -->
<g id="edge28" class="edge">
<title>Enrich&#45;&gt;Sagemaker</title>
<path fill="none" stroke="lightblue" d="M978.41,-348.78C967.93,-335.49 953.55,-315.87 943.8,-297 910.06,-231.68 943.25,-190.39 888.8,-141 869.8,-123.76 843.66,-114.67 818.99,-110"/>
<polygon fill="lightblue" stroke="lightblue" points="819.34,-106.51 808.9,-108.3 818.18,-113.41 819.34,-106.51"/>
<text text-anchor="middle" x="984.3" y="-231.8" font-family="Times,serif" font-size="14.00">implementedBy</text>
</g>
<!-- EC2 -->
<g id="node4" class="node">
<title>EC2</title>
<ellipse fill="none" stroke="blue" cx="192.8" cy="-18" rx="30.59" ry="18"/>
<text text-anchor="middle" x="192.8" y="-14.3" font-family="Times,serif" font-size="14.00">EC2</text>
</g>
<!-- PostGIS&#45;&gt;EC2 -->
<g id="edge3" class="edge">
<title>PostGIS&#45;&gt;EC2</title>
<path fill="none" stroke="lightblue" stroke-dasharray="5,2" d="M995.51,-173.86C987.11,-149.86 968.26,-106.98 935.8,-87 875.74,-50.03 380.08,-26.75 233.49,-20.62"/>
<polygon fill="lightblue" stroke="lightblue" points="233.29,-17.11 223.15,-20.19 233,-24.1 233.29,-17.11"/>
<text text-anchor="middle" x="1001.3" y="-101.3" font-family="Times,serif" font-size="14.00">requires</text>
</g>
<!-- Raw Images -->
<g id="node5" class="node">
<title>Raw Images</title>
<polygon fill="none" stroke="black" points="472.8,-471 368.8,-471 368.8,-435 472.8,-435 472.8,-471"/>
<text text-anchor="middle" x="420.8" y="-449.3" font-family="Times,serif" font-size="14.00">Raw Images</text>
</g>
<!-- Index Comp. -->
<g id="node6" class="node">
<title>Index Comp.</title>
<ellipse fill="none" stroke="black" cx="420.8" cy="-366" rx="69.59" ry="18"/>
<text text-anchor="middle" x="420.8" y="-362.3" font-family="Times,serif" font-size="14.00">Index Comp.</text>
</g>
<!-- Raw Images&#45;&gt;Index Comp. -->
<g id="edge4" class="edge">
<title>Raw Images&#45;&gt;Index Comp.</title>
<path fill="none" stroke="black" d="M420.8,-434.8C420.8,-423.16 420.8,-407.55 420.8,-394.24"/>
<polygon fill="black" stroke="black" points="424.3,-394.18 420.8,-384.18 417.3,-394.18 424.3,-394.18"/>
</g>
<!-- GeoServer -->
<g id="node7" class="node">
<title>GeoServer</title>
<ellipse fill="none" stroke="blue" cx="158.8" cy="-366" rx="59.59" ry="18"/>
<text text-anchor="middle" x="158.8" y="-362.3" font-family="Times,serif" font-size="14.00">GeoServer</text>
</g>
<!-- Raw Images&#45;&gt;GeoServer -->
<g id="edge5" class="edge">
<title>Raw Images&#45;&gt;GeoServer</title>
<path fill="none" stroke="lightblue" d="M368.53,-436.87C348.26,-430.87 324.89,-423.79 303.8,-417 270.81,-406.38 233.89,-393.64 205.56,-383.67"/>
<polygon fill="lightblue" stroke="lightblue" points="206.51,-380.3 195.91,-380.27 204.18,-386.9 206.51,-380.3"/>
<text text-anchor="middle" x="360.3" y="-405.8" font-family="Times,serif" font-size="14.00">implementedBy</text>
</g>
<!-- Index Comp.&#45;&gt;Integrated Data -->
<g id="edge21" class="edge">
<title>Index Comp.&#45;&gt;Integrated Data</title>
<path fill="none" stroke="black" d="M490.32,-365.1C564.41,-363.74 675.31,-357.06 706.8,-330 713.41,-324.32 717.03,-315.8 718.97,-307.39"/>
<polygon fill="black" stroke="black" points="722.44,-307.82 720.59,-297.39 715.53,-306.7 722.44,-307.82"/>
</g>
<!-- EMR -->
<g id="node16" class="node">
<title>EMR</title>
<ellipse fill="none" stroke="blue" cx="192.8" cy="-105" rx="33.6" ry="18"/>
<text text-anchor="middle" x="192.8" y="-101.3" font-family="Times,serif" font-size="14.00">EMR</text>
</g>
<!-- Index Comp.&#45;&gt;EMR -->
<g id="edge22" class="edge">
<title>Index Comp.&#45;&gt;EMR</title>
<path fill="none" stroke="lightblue" d="M373.83,-352.66C322.84,-336.56 243.5,-303.11 204.8,-243 183.51,-209.92 184.65,-162.67 188.18,-133.2"/>
<polygon fill="lightblue" stroke="lightblue" points="191.66,-133.58 189.54,-123.2 184.72,-132.63 191.66,-133.58"/>
<text text-anchor="middle" x="261.3" y="-231.8" font-family="Times,serif" font-size="14.00">implementedBy</text>
</g>
<!-- Glue -->
<g id="node17" class="node">
<title>Glue</title>
<ellipse fill="none" stroke="blue" cx="416.8" cy="-105" rx="32.49" ry="18"/>
<text text-anchor="middle" x="416.8" y="-101.3" font-family="Times,serif" font-size="14.00">Glue</text>
</g>
<!-- Index Comp.&#45;&gt;Glue -->
<g id="edge23" class="edge">
<title>Index Comp.&#45;&gt;Glue</title>
<path fill="none" stroke="lightblue" d="M406.64,-348.22C369.01,-302.71 271.26,-177.91 298.8,-141 316.01,-117.95 347.76,-109.46 373.99,-106.6"/>
<polygon fill="lightblue" stroke="lightblue" points="374.43,-110.07 384.09,-105.73 373.83,-103.1 374.43,-110.07"/>
<text text-anchor="middle" x="385.3" y="-231.8" font-family="Times,serif" font-size="14.00">implementedBy</text>
</g>
<!-- Index Comp.&#45;&gt;Sagemaker -->
<g id="edge24" class="edge">
<title>Index Comp.&#45;&gt;Sagemaker</title>
<path fill="none" stroke="lightblue" d="M429.26,-348.12C452.14,-304.52 519.96,-188.29 614.8,-141 636.34,-130.26 661.54,-122.54 684.12,-117.13"/>
<polygon fill="lightblue" stroke="lightblue" points="684.99,-120.52 693.95,-114.87 683.42,-113.69 684.99,-120.52"/>
<text text-anchor="middle" x="566.3" y="-231.8" font-family="Times,serif" font-size="14.00">implementedBy</text>
</g>
<!-- GeoServer&#45;&gt;EC2 -->
<g id="edge6" class="edge">
<title>GeoServer&#45;&gt;EC2</title>
<path fill="none" stroke="lightblue" stroke-dasharray="5,2" d="M146.32,-348.11C130.1,-324.44 103.8,-279.45 103.8,-236.5 103.8,-236.5 103.8,-236.5 103.8,-104 103.8,-71.84 134.57,-48.11 159.92,-34.02"/>
<polygon fill="lightblue" stroke="lightblue" points="161.74,-37.02 168.95,-29.27 158.47,-30.83 161.74,-37.02"/>
<text text-anchor="middle" x="134.3" y="-188.3" font-family="Times,serif" font-size="14.00">requires</text>
</g>
<!-- S3 -->
<g id="node8" class="node">
<title>S3</title>
<ellipse fill="none" stroke="blue" cx="158.8" cy="-279" rx="27" ry="18"/>
<text text-anchor="middle" x="158.8" y="-275.3" font-family="Times,serif" font-size="14.00">S3</text>
</g>
<!-- GeoServer&#45;&gt;S3 -->
<g id="edge7" class="edge">
<title>GeoServer&#45;&gt;S3</title>
<path fill="none" stroke="lightblue" stroke-dasharray="5,2" d="M158.8,-347.8C158.8,-336.16 158.8,-320.55 158.8,-307.24"/>
<polygon fill="lightblue" stroke="lightblue" points="162.3,-307.18 158.8,-297.18 155.3,-307.18 162.3,-307.18"/>
<text text-anchor="middle" x="189.3" y="-318.8" font-family="Times,serif" font-size="14.00">requires</text>
</g>
<!-- Integrated Data&#45;&gt;PostGIS -->
<g id="edge10" class="edge">
<title>Integrated Data&#45;&gt;PostGIS</title>
<path fill="none" stroke="lightblue" d="M739.26,-260.94C752.39,-249.78 770.97,-235.87 789.8,-228 838.97,-207.46 899.31,-198.95 942.85,-195.44"/>
<polygon fill="lightblue" stroke="lightblue" points="943.28,-198.92 952.99,-194.68 942.76,-191.93 943.28,-198.92"/>
<text text-anchor="middle" x="846.3" y="-231.8" font-family="Times,serif" font-size="14.00">implementedBy</text>
</g>
<!-- Irrigation Opt. -->
<g id="node10" class="node">
<title>Irrigation Opt.</title>
<ellipse fill="none" stroke="black" cx="741.8" cy="-192" rx="77.99" ry="18"/>
<text text-anchor="middle" x="741.8" y="-188.3" font-family="Times,serif" font-size="14.00">Irrigation Opt.</text>
</g>
<!-- Integrated Data&#45;&gt;Irrigation Opt. -->
<g id="edge8" class="edge">
<title>Integrated Data&#45;&gt;Irrigation Opt.</title>
<path fill="none" stroke="black" d="M722.19,-260.67C723.23,-250.95 724.97,-238.67 727.8,-228 728.54,-225.21 729.44,-222.35 730.43,-219.52"/>
<polygon fill="black" stroke="black" points="733.7,-220.76 733.98,-210.17 727.16,-218.27 733.7,-220.76"/>
</g>
<!-- ETL -->
<g id="node11" class="node">
<title>ETL</title>
<ellipse fill="none" stroke="black" cx="610.8" cy="-192" rx="29.5" ry="18"/>
<text text-anchor="middle" x="610.8" y="-188.3" font-family="Times,serif" font-size="14.00">ETL</text>
</g>
<!-- Integrated Data&#45;&gt;ETL -->
<g id="edge9" class="edge">
<title>Integrated Data&#45;&gt;ETL</title>
<path fill="none" stroke="black" d="M698.54,-260.8C680.58,-246.92 655.29,-227.37 636.47,-212.83"/>
<polygon fill="black" stroke="black" points="638.38,-209.89 628.33,-206.54 634.1,-215.43 638.38,-209.89"/>
</g>
<!-- Irrigation Opt.&#45;&gt;Sagemaker -->
<g id="edge25" class="edge">
<title>Irrigation Opt.&#45;&gt;Sagemaker</title>
<path fill="none" stroke="lightblue" d="M742.82,-173.8C743.5,-162.16 744.42,-146.55 745.2,-133.24"/>
<polygon fill="lightblue" stroke="lightblue" points="748.7,-133.36 745.79,-123.18 741.71,-132.95 748.7,-133.36"/>
<text text-anchor="middle" x="801.3" y="-144.8" font-family="Times,serif" font-size="14.00">implementedBy</text>
</g>
<!-- DWH -->
<g id="node12" class="node">
<title>DWH</title>
<polygon fill="none" stroke="black" points="926.8,-123 872.8,-123 872.8,-87 926.8,-87 926.8,-123"/>
<text text-anchor="middle" x="899.8" y="-101.3" font-family="Times,serif" font-size="14.00">DWH</text>
</g>
<!-- ETL&#45;&gt;DWH -->
<g id="edge29" class="edge">
<title>ETL&#45;&gt;DWH</title>
<path fill="none" stroke="black" d="M633.71,-180.75C640.39,-178.14 647.78,-175.63 654.8,-174 699.79,-163.58 821.37,-178.29 861.8,-156 871.79,-150.5 879.96,-141.14 886.13,-132.01"/>
<polygon fill="black" stroke="black" points="889.14,-133.79 891.42,-123.45 883.19,-130.11 889.14,-133.79"/>
</g>
<!-- ETL&#45;&gt;EMR -->
<g id="edge30" class="edge">
<title>ETL&#45;&gt;EMR</title>
<path fill="none" stroke="lightblue" d="M581.97,-188.53C534.59,-184.14 437.45,-173.73 356.8,-156 312.41,-146.24 262.63,-130.33 229.68,-119.08"/>
<polygon fill="lightblue" stroke="lightblue" points="230.61,-115.7 220.02,-115.76 228.33,-122.32 230.61,-115.7"/>
<text text-anchor="middle" x="413.3" y="-144.8" font-family="Times,serif" font-size="14.00">implementedBy</text>
</g>
<!-- ETL&#45;&gt;Glue -->
<g id="edge31" class="edge">
<title>ETL&#45;&gt;Glue</title>
<path fill="none" stroke="lightblue" d="M584.21,-184.24C561.76,-178.11 529.01,-168.19 501.8,-156 482.16,-147.2 461.31,-134.98 445.18,-124.83"/>
<polygon fill="lightblue" stroke="lightblue" points="447.05,-121.87 436.74,-119.44 443.28,-127.77 447.05,-121.87"/>
<text text-anchor="middle" x="558.3" y="-144.8" font-family="Times,serif" font-size="14.00">implementedBy</text>
</g>
<!-- ETL&#45;&gt;Sagemaker -->
<g id="edge32" class="edge">
<title>ETL&#45;&gt;Sagemaker</title>
<path fill="none" stroke="lightblue" d="M612.58,-174.03C614.57,-163.2 618.8,-149.63 627.8,-141 641.64,-127.73 660.23,-119.46 678.61,-114.31"/>
<polygon fill="lightblue" stroke="lightblue" points="679.63,-117.67 688.47,-111.83 677.92,-110.88 679.63,-117.67"/>
<text text-anchor="middle" x="684.3" y="-144.8" font-family="Times,serif" font-size="14.00">implementedBy</text>
</g>
<!-- Redshift -->
<g id="node13" class="node">
<title>Redshift</title>
<ellipse fill="none" stroke="blue" cx="995.8" cy="-18" rx="50.09" ry="18"/>
<text text-anchor="middle" x="995.8" y="-14.3" font-family="Times,serif" font-size="14.00">Redshift</text>
</g>
<!-- DWH&#45;&gt;Redshift -->
<g id="edge11" class="edge">
<title>DWH&#45;&gt;Redshift</title>
<path fill="none" stroke="lightblue" d="M919.23,-86.8C933.79,-73.91 953.86,-56.14 969.8,-42.03"/>
<polygon fill="lightblue" stroke="lightblue" points="972.54,-44.27 977.7,-35.03 967.9,-39.03 972.54,-44.27"/>
<text text-anchor="middle" x="1010.3" y="-57.8" font-family="Times,serif" font-size="14.00">implementedBy</text>
</g>
<!-- Download -->
<g id="node14" class="node">
<title>Download</title>
<ellipse fill="none" stroke="black" cx="592.8" cy="-540" rx="56.59" ry="18"/>
<text text-anchor="middle" x="592.8" y="-536.3" font-family="Times,serif" font-size="14.00">Download</text>
</g>
<!-- Download&#45;&gt;Raw Images -->
<g id="edge12" class="edge">
<title>Download&#45;&gt;Raw Images</title>
<path fill="none" stroke="black" d="M563.63,-524.58C536.53,-511.19 495.8,-491.06 464.76,-475.72"/>
<polygon fill="black" stroke="black" points="465.98,-472.42 455.47,-471.13 462.88,-478.7 465.98,-472.42"/>
</g>
<!-- Download&#45;&gt;Lambda -->
<g id="edge13" class="edge">
<title>Download&#45;&gt;Lambda</title>
<path fill="none" stroke="lightblue" d="M646.95,-534.67C702.2,-529.48 783.57,-519.51 810.8,-504 889.23,-459.34 882.05,-416.51 940.8,-348 953.45,-333.25 967.84,-316.92 979.36,-303.96"/>
<polygon fill="lightblue" stroke="lightblue" points="982.09,-306.17 986.12,-296.37 976.86,-301.51 982.09,-306.17"/>
<text text-anchor="middle" x="959.3" y="-405.8" font-family="Times,serif" font-size="14.00">implementedBy</text>
</g>
<!-- Download&#45;&gt;EMR -->
<g id="edge14" class="edge">
<title>Download&#45;&gt;EMR</title>
<path fill="none" stroke="lightblue" d="M545,-530.22C415.2,-505.18 62.35,-428.86 9.8,-330 -36.47,-242.94 95.88,-157.66 160.08,-122.64"/>
<polygon fill="lightblue" stroke="lightblue" points="161.87,-125.65 169.03,-117.84 158.56,-119.48 161.87,-125.65"/>
<text text-anchor="middle" x="66.3" y="-318.8" font-family="Times,serif" font-size="14.00">implementedBy</text>
</g>
<!-- Download&#45;&gt;Glue -->
<g id="edge16" class="edge">
<title>Download&#45;&gt;Glue</title>
<path fill="none" stroke="lightblue" d="M592.8,-521.74C592.8,-504.57 592.8,-477.46 592.8,-454 592.8,-454 592.8,-454 592.8,-278 592.8,-254.92 592.4,-246.65 578.8,-228 544.6,-181.09 515.31,-192.05 469.8,-156 459.11,-147.53 448.03,-137.33 438.78,-128.35"/>
<polygon fill="lightblue" stroke="lightblue" points="441.06,-125.69 431.48,-121.17 436.15,-130.68 441.06,-125.69"/>
<text text-anchor="middle" x="649.3" y="-318.8" font-family="Times,serif" font-size="14.00">implementedBy</text>
</g>
<!-- Download&#45;&gt;Sagemaker -->
<g id="edge17" class="edge">
<title>Download&#45;&gt;Sagemaker</title>
<path fill="none" stroke="lightblue" d="M615.59,-523.37C670.64,-484.03 810.07,-374.63 860.8,-243 877.11,-200.7 887.75,-177.46 860.8,-141 850.31,-126.8 834.16,-118.18 817.29,-112.99"/>
<polygon fill="lightblue" stroke="lightblue" points="817.87,-109.53 807.31,-110.32 816.06,-116.29 817.87,-109.53"/>
<text text-anchor="middle" x="880.3" y="-318.8" font-family="Times,serif" font-size="14.00">implementedBy</text>
</g>
<!-- EMR&#45;&gt;EC2 -->
<g id="edge15" class="edge">
<title>EMR&#45;&gt;EC2</title>
<path fill="none" stroke="lightblue" stroke-dasharray="5,2" d="M192.8,-86.8C192.8,-75.16 192.8,-59.55 192.8,-46.24"/>
<polygon fill="lightblue" stroke="lightblue" points="196.3,-46.18 192.8,-36.18 189.3,-46.18 196.3,-46.18"/>
<text text-anchor="middle" x="223.3" y="-57.8" font-family="Times,serif" font-size="14.00">requires</text>
</g>
<!-- Consume -->
<g id="node19" class="node">
<title>Consume</title>
<ellipse fill="none" stroke="black" cx="1062.8" cy="-540" rx="53.89" ry="18"/>
<text text-anchor="middle" x="1062.8" y="-536.3" font-family="Times,serif" font-size="14.00">Consume</text>
</g>
<!-- Consume&#45;&gt;Sensor Data -->
<g id="edge18" class="edge">
<title>Consume&#45;&gt;Sensor Data</title>
<path fill="none" stroke="black" d="M1051.34,-522.21C1043.06,-510.06 1031.71,-493.43 1022.29,-479.63"/>
<polygon fill="black" stroke="black" points="1024.96,-477.34 1016.44,-471.05 1019.18,-481.28 1024.96,-477.34"/>
</g>
<!-- Consume&#45;&gt;Lambda -->
<g id="edge19" class="edge">
<title>Consume&#45;&gt;Lambda</title>
<path fill="none" stroke="lightblue" d="M1115.58,-536.27C1138.21,-532.15 1162.65,-523.15 1176.8,-504 1183.07,-495.52 1187.18,-485.15 1171.8,-435 1153.96,-376.81 1152.56,-353.97 1105.8,-315 1091.11,-302.75 1071.96,-294.74 1054.05,-289.51"/>
<polygon fill="lightblue" stroke="lightblue" points="1054.83,-286.1 1044.26,-286.89 1053.01,-292.86 1054.83,-286.1"/>
<text text-anchor="middle" x="1223.3" y="-405.8" font-family="Times,serif" font-size="14.00">implementedBy</text>
</g>
<!-- Kinesis -->
<g id="node20" class="node">
<title>Kinesis</title>
<ellipse fill="none" stroke="blue" cx="1118.8" cy="-453" rx="44.39" ry="18"/>
<text text-anchor="middle" x="1118.8" y="-449.3" font-family="Times,serif" font-size="14.00">Kinesis</text>
</g>
<!-- Consume&#45;&gt;Kinesis -->
<g id="edge20" class="edge">
<title>Consume&#45;&gt;Kinesis</title>
<path fill="none" stroke="lightblue" d="M1059.27,-521.74C1058.1,-511.58 1058.27,-498.84 1063.8,-489 1067.7,-482.06 1073.61,-476.3 1080.13,-471.58"/>
<polygon fill="lightblue" stroke="lightblue" points="1082.06,-474.5 1088.6,-466.16 1078.29,-468.6 1082.06,-474.5"/>
<text text-anchor="middle" x="1120.3" y="-492.8" font-family="Times,serif" font-size="14.00">implementedBy</text>
</g>
</g>
</svg>
