<?xml version="1.0" encoding="UTF-8" standalone="no"?>
<!DOCTYPE svg PUBLIC "-//W3C//DTD SVG 1.1//EN"
 "http://www.w3.org/Graphics/SVG/1.1/DTD/svg11.dtd">
<!-- Generated by graphviz version 2.43.0 (0)
 -->
<!-- Title: G Pages: 1 -->
<svg width="788pt" height="566pt"
 viewBox="0.00 0.00 787.79 566.00" xmlns="http://www.w3.org/2000/svg" xmlns:xlink="http://www.w3.org/1999/xlink">
<g id="graph0" class="graph" transform="scale(1 1) rotate(0) translate(4 562)">
<title>G</title>
<polygon fill="white" stroke="transparent" points="-4,4 -4,-562 783.79,-562 783.79,4 -4,4"/>
<!-- Sensor Data -->
<g id="node1" class="node">
<title>Sensor Data</title>
<polygon fill="none" stroke="black" points="619.79,-471 515.79,-471 515.79,-435 619.79,-435 619.79,-471"/>
<text text-anchor="middle" x="567.79" y="-449.3" font-family="Times,serif" font-size="14.00">Sensor Data</text>
</g>
<!-- Enrich -->
<g id="node2" class="node">
<title>Enrich</title>
<ellipse fill="none" stroke="black" cx="567.79" cy="-366" rx="41.69" ry="18"/>
<text text-anchor="middle" x="567.79" y="-362.3" font-family="Times,serif" font-size="14.00">Enrich</text>
</g>
<!-- Sensor Data&#45;&gt;Enrich -->
<g id="edge1" class="edge">
<title>Sensor Data&#45;&gt;Enrich</title>
<path fill="none" stroke="black" d="M567.79,-434.8C567.79,-423.16 567.79,-407.55 567.79,-394.24"/>
<polygon fill="black" stroke="black" points="571.29,-394.18 567.79,-384.18 564.29,-394.18 571.29,-394.18"/>
</g>
<!-- PostGIS -->
<g id="node15" class="node">
<title>PostGIS</title>
<ellipse fill="none" stroke="blue" cx="149.79" cy="-192" rx="48.19" ry="18"/>
<text text-anchor="middle" x="149.79" y="-188.3" font-family="Times,serif" font-size="14.00">PostGIS</text>
</g>
<!-- Sensor Data&#45;&gt;PostGIS -->
<g id="edge15" class="edge">
<title>Sensor Data&#45;&gt;PostGIS</title>
<path fill="none" stroke="lightblue" stroke-width="2" d="M515.61,-448.12C457.46,-441.85 362.36,-425.6 291.79,-384 225.42,-344.87 180.4,-261.4 160.84,-218.95"/>
<polygon fill="lightblue" stroke="lightblue" stroke-width="2" points="164.03,-217.51 156.73,-209.82 157.64,-220.38 164.03,-217.51"/>
<text text-anchor="middle" x="285.79" y="-318.8" font-family="Times,serif" font-size="14.00">ImplementedBy</text>
</g>
<!-- Integrated Data -->
<g id="node5" class="node">
<title>Integrated Data</title>
<polygon fill="none" stroke="black" points="416.29,-297 285.29,-297 285.29,-261 416.29,-261 416.29,-297"/>
<text text-anchor="middle" x="350.79" y="-275.3" font-family="Times,serif" font-size="14.00">Integrated Data</text>
</g>
<!-- Enrich&#45;&gt;Integrated Data -->
<g id="edge8" class="edge">
<title>Enrich&#45;&gt;Integrated Data</title>
<path fill="none" stroke="black" d="M535.4,-354.62C515.23,-347.97 488.83,-338.94 465.79,-330 443,-321.15 418.08,-310.44 397.28,-301.21"/>
<polygon fill="black" stroke="black" points="398.59,-297.97 388.03,-297.09 395.74,-304.36 398.59,-297.97"/>
</g>
<!-- Sagemaker -->
<g id="node13" class="node">
<title>Sagemaker</title>
<ellipse fill="none" stroke="blue" cx="504.79" cy="-105" rx="63.09" ry="18"/>
<text text-anchor="middle" x="504.79" y="-101.3" font-family="Times,serif" font-size="14.00">Sagemaker</text>
</g>
<!-- Enrich&#45;&gt;Sagemaker -->
<g id="edge14" class="edge">
<title>Enrich&#45;&gt;Sagemaker</title>
<path fill="none" stroke="lightblue" stroke-width="2" d="M588.02,-350.01C593.93,-344.45 599.64,-337.62 602.79,-330 623.79,-279.31 811.67,-448.79 587.79,-141 581.39,-132.19 572.32,-125.58 562.51,-120.63"/>
<polygon fill="lightblue" stroke="lightblue" stroke-width="2" points="563.91,-117.42 553.36,-116.53 561.05,-123.81 563.91,-117.42"/>
<text text-anchor="middle" x="712.79" y="-231.8" font-family="Times,serif" font-size="14.00">ImplementedBy</text>
</g>
<!-- Raw Images -->
<g id="node3" class="node">
<title>Raw Images</title>
<polygon fill="none" stroke="black" points="422.79,-471 318.79,-471 318.79,-435 422.79,-435 422.79,-471"/>
<text text-anchor="middle" x="370.79" y="-449.3" font-family="Times,serif" font-size="14.00">Raw Images</text>
</g>
<!-- Index Comp. -->
<g id="node4" class="node">
<title>Index Comp.</title>
<ellipse fill="none" stroke="black" cx="370.79" cy="-366" rx="69.59" ry="18"/>
<text text-anchor="middle" x="370.79" y="-362.3" font-family="Times,serif" font-size="14.00">Index Comp.</text>
</g>
<!-- Raw Images&#45;&gt;Index Comp. -->
<g id="edge2" class="edge">
<title>Raw Images&#45;&gt;Index Comp.</title>
<path fill="none" stroke="black" d="M370.79,-434.8C370.79,-423.16 370.79,-407.55 370.79,-394.24"/>
<polygon fill="black" stroke="black" points="374.29,-394.18 370.79,-384.18 367.29,-394.18 374.29,-394.18"/>
</g>
<!-- GeoServer -->
<g id="node17" class="node">
<title>GeoServer</title>
<ellipse fill="none" stroke="blue" cx="59.79" cy="-366" rx="59.59" ry="18"/>
<text text-anchor="middle" x="59.79" y="-362.3" font-family="Times,serif" font-size="14.00">GeoServer</text>
</g>
<!-- Raw Images&#45;&gt;GeoServer -->
<g id="edge13" class="edge">
<title>Raw Images&#45;&gt;GeoServer</title>
<path fill="none" stroke="lightblue" stroke-width="2" d="M318.75,-449.8C234.98,-445.74 77.83,-435.69 60.79,-417 55.28,-410.95 53.69,-402.59 53.89,-394.42"/>
<polygon fill="lightblue" stroke="lightblue" stroke-width="2" points="57.38,-394.69 54.92,-384.39 50.41,-393.97 57.38,-394.69"/>
<text text-anchor="middle" x="117.79" y="-405.8" font-family="Times,serif" font-size="14.00">ImplementedBy</text>
</g>
<!-- Index Comp.&#45;&gt;Integrated Data -->
<g id="edge7" class="edge">
<title>Index Comp.&#45;&gt;Integrated Data</title>
<path fill="none" stroke="black" d="M366.75,-347.8C364.01,-336.16 360.34,-320.55 357.2,-307.24"/>
<polygon fill="black" stroke="black" points="360.53,-306.11 354.84,-297.18 353.72,-307.71 360.53,-306.11"/>
</g>
<!-- Index Comp.&#45;&gt;Sagemaker -->
<g id="edge20" class="edge">
<title>Index Comp.&#45;&gt;Sagemaker</title>
<path fill="none" stroke="lightblue" stroke-width="2" d="M386.97,-348.38C398.88,-335.33 414.71,-316.22 424.79,-297 439.69,-268.62 429.7,-255.72 445.79,-228 451.32,-218.48 456.42,-218.97 462.79,-210 478.45,-187.96 480.88,-181.15 490.79,-156 493.66,-148.74 496.19,-140.66 498.28,-133.16"/>
<polygon fill="lightblue" stroke="lightblue" stroke-width="2" points="501.69,-133.97 500.85,-123.41 494.92,-132.19 501.69,-133.97"/>
<text text-anchor="middle" x="502.79" y="-231.8" font-family="Times,serif" font-size="14.00">ImplementedBy</text>
</g>
<!-- Irrigation Opt. -->
<g id="node6" class="node">
<title>Irrigation Opt.</title>
<ellipse fill="none" stroke="black" cx="375.79" cy="-192" rx="77.99" ry="18"/>
<text text-anchor="middle" x="375.79" y="-188.3" font-family="Times,serif" font-size="14.00">Irrigation Opt.</text>
</g>
<!-- Integrated Data&#45;&gt;Irrigation Opt. -->
<g id="edge3" class="edge">
<title>Integrated Data&#45;&gt;Irrigation Opt.</title>
<path fill="none" stroke="black" d="M356.27,-260.94C358.07,-255.25 360.05,-248.86 361.79,-243 364.02,-235.51 366.34,-227.37 368.44,-219.87"/>
<polygon fill="black" stroke="black" points="371.83,-220.73 371.13,-210.16 365.09,-218.86 371.83,-220.73"/>
</g>
<!-- ETL -->
<g id="node7" class="node">
<title>ETL</title>
<ellipse fill="none" stroke="black" cx="244.79" cy="-192" rx="29.5" ry="18"/>
<text text-anchor="middle" x="244.79" y="-188.3" font-family="Times,serif" font-size="14.00">ETL</text>
</g>
<!-- Integrated Data&#45;&gt;ETL -->
<g id="edge4" class="edge">
<title>Integrated Data&#45;&gt;ETL</title>
<path fill="none" stroke="black" d="M349.85,-260.82C348.42,-250.18 344.96,-236.9 336.79,-228 321.39,-211.21 310.09,-218.11 288.79,-210 285.48,-208.74 282.03,-207.42 278.58,-206.09"/>
<polygon fill="black" stroke="black" points="279.58,-202.73 268.99,-202.4 277.06,-209.26 279.58,-202.73"/>
</g>
<!-- Integrated Data&#45;&gt;PostGIS -->
<g id="edge17" class="edge">
<title>Integrated Data&#45;&gt;PostGIS</title>
<path fill="none" stroke="lightblue" stroke-width="2" d="M285.09,-266.17C263.3,-260.8 239.36,-253.29 218.79,-243 209.17,-238.19 208.43,-234.42 199.79,-228 193.6,-223.39 186.88,-218.57 180.43,-214.03"/>
<polygon fill="lightblue" stroke="lightblue" stroke-width="2" points="182.1,-210.92 171.89,-208.06 178.09,-216.66 182.1,-210.92"/>
<text text-anchor="middle" x="275.79" y="-231.8" font-family="Times,serif" font-size="14.00">ImplementedBy</text>
</g>
<!-- Irrigation Opt.&#45;&gt;Sagemaker -->
<g id="edge19" class="edge">
<title>Irrigation Opt.&#45;&gt;Sagemaker</title>
<path fill="none" stroke="lightblue" stroke-width="2" d="M371.39,-174.01C369.7,-163.45 369.64,-150.18 376.79,-141 385.12,-130.32 412.79,-122.07 440.29,-116.26"/>
<polygon fill="lightblue" stroke="lightblue" stroke-width="2" points="441.26,-119.64 450.37,-114.24 439.88,-112.78 441.26,-119.64"/>
<text text-anchor="middle" x="433.79" y="-144.8" font-family="Times,serif" font-size="14.00">ImplementedBy</text>
</g>
<!-- DWH -->
<g id="node8" class="node">
<title>DWH</title>
<polygon fill="none" stroke="black" points="232.79,-123 178.79,-123 178.79,-87 232.79,-87 232.79,-123"/>
<text text-anchor="middle" x="205.79" y="-101.3" font-family="Times,serif" font-size="14.00">DWH</text>
</g>
<!-- ETL&#45;&gt;DWH -->
<g id="edge9" class="edge">
<title>ETL&#45;&gt;DWH</title>
<path fill="none" stroke="black" d="M232.11,-175.7C227.72,-169.82 223.08,-162.87 219.79,-156 216.37,-148.85 213.64,-140.7 211.54,-133.09"/>
<polygon fill="black" stroke="black" points="214.89,-132.04 209.06,-123.2 208.1,-133.75 214.89,-132.04"/>
</g>
<!-- ETL&#45;&gt;Sagemaker -->
<g id="edge16" class="edge">
<title>ETL&#45;&gt;Sagemaker</title>
<path fill="none" stroke="lightblue" stroke-width="2" d="M243.17,-173.82C243.15,-162.9 245.15,-149.31 253.79,-141 278.6,-117.16 366.76,-109.39 431.62,-106.94"/>
<polygon fill="lightblue" stroke="lightblue" stroke-width="2" points="431.94,-110.44 441.82,-106.6 431.7,-103.44 431.94,-110.44"/>
<text text-anchor="middle" x="310.79" y="-144.8" font-family="Times,serif" font-size="14.00">ImplementedBy</text>
</g>
<!-- Redshift -->
<g id="node11" class="node">
<title>Redshift</title>
<ellipse fill="none" stroke="blue" cx="205.79" cy="-18" rx="50.09" ry="18"/>
<text text-anchor="middle" x="205.79" y="-14.3" font-family="Times,serif" font-size="14.00">Redshift</text>
</g>
<!-- DWH&#45;&gt;Redshift -->
<g id="edge22" class="edge">
<title>DWH&#45;&gt;Redshift</title>
<path fill="none" stroke="lightblue" stroke-width="2" d="M205.79,-86.8C205.79,-75.16 205.79,-59.55 205.79,-46.24"/>
<polygon fill="lightblue" stroke="lightblue" stroke-width="2" points="209.29,-46.18 205.79,-36.18 202.29,-46.18 209.29,-46.18"/>
<text text-anchor="middle" x="262.79" y="-57.8" font-family="Times,serif" font-size="14.00">ImplementedBy</text>
</g>
<!-- Download -->
<g id="node9" class="node">
<title>Download</title>
<ellipse fill="none" stroke="black" cx="447.79" cy="-540" rx="56.59" ry="18"/>
<text text-anchor="middle" x="447.79" y="-536.3" font-family="Times,serif" font-size="14.00">Download</text>
</g>
<!-- Download&#45;&gt;Raw Images -->
<g id="edge5" class="edge">
<title>Download&#45;&gt;Raw Images</title>
<path fill="none" stroke="black" d="M432.95,-522.61C421.67,-510.16 405.96,-492.81 393.15,-478.68"/>
<polygon fill="black" stroke="black" points="395.7,-476.28 386.39,-471.21 390.51,-480.97 395.7,-476.28"/>
</g>
<!-- Download&#45;&gt;Sagemaker -->
<g id="edge18" class="edge">
<title>Download&#45;&gt;Sagemaker</title>
<path fill="none" stroke="lightblue" stroke-width="2" d="M447.07,-521.84C446.13,-482.72 447.97,-384.92 484.79,-315 506.33,-274.12 541.68,-285.51 559.79,-243 576.46,-203.9 548.45,-157.96 526.66,-130.46"/>
<polygon fill="lightblue" stroke="lightblue" stroke-width="2" points="529.2,-128.04 520.15,-122.54 523.79,-132.49 529.2,-128.04"/>
<text text-anchor="middle" x="541.79" y="-318.8" font-family="Times,serif" font-size="14.00">ImplementedBy</text>
</g>
<!-- Consume -->
<g id="node10" class="node">
<title>Consume</title>
<ellipse fill="none" stroke="black" cx="644.79" cy="-540" rx="53.89" ry="18"/>
<text text-anchor="middle" x="644.79" y="-536.3" font-family="Times,serif" font-size="14.00">Consume</text>
</g>
<!-- Consume&#45;&gt;Sensor Data -->
<g id="edge6" class="edge">
<title>Consume&#45;&gt;Sensor Data</title>
<path fill="none" stroke="black" d="M629.95,-522.61C618.67,-510.16 602.96,-492.81 590.15,-478.68"/>
<polygon fill="black" stroke="black" points="592.7,-476.28 583.39,-471.21 587.51,-480.97 592.7,-476.28"/>
</g>
<!-- Kinesis -->
<g id="node12" class="node">
<title>Kinesis</title>
<ellipse fill="none" stroke="blue" cx="681.79" cy="-453" rx="44.39" ry="18"/>
<text text-anchor="middle" x="681.79" y="-449.3" font-family="Times,serif" font-size="14.00">Kinesis</text>
</g>
<!-- Consume&#45;&gt;Kinesis -->
<g id="edge21" class="edge">
<title>Consume&#45;&gt;Kinesis</title>
<path fill="none" stroke="lightblue" stroke-width="2" d="M652.28,-521.8C657.48,-509.85 664.51,-493.72 670.4,-480.18"/>
<polygon fill="lightblue" stroke="lightblue" stroke-width="2" points="673.66,-481.45 674.44,-470.89 667.24,-478.66 673.66,-481.45"/>
<text text-anchor="middle" x="722.79" y="-492.8" font-family="Times,serif" font-size="14.00">ImplementedBy</text>
</g>
<!-- EC2 -->
<g id="node14" class="node">
<title>EC2</title>
<ellipse fill="none" stroke="blue" cx="93.79" cy="-105" rx="30.59" ry="18"/>
<text text-anchor="middle" x="93.79" y="-101.3" font-family="Times,serif" font-size="14.00">EC2</text>
</g>
<!-- PostGIS&#45;&gt;EC2 -->
<g id="edge11" class="edge">
<title>PostGIS&#45;&gt;EC2</title>
<path fill="none" stroke="lightblue" stroke-dasharray="5,2" d="M138.73,-174.21C130.57,-161.82 119.34,-144.78 110.15,-130.82"/>
<polygon fill="lightblue" stroke="lightblue" points="112.88,-128.61 104.46,-122.18 107.03,-132.46 112.88,-128.61"/>
<text text-anchor="middle" x="152.29" y="-144.8" font-family="Times,serif" font-size="14.00">require</text>
</g>
<!-- S3 -->
<g id="node16" class="node">
<title>S3</title>
<ellipse fill="none" stroke="blue" cx="113.79" cy="-279" rx="27" ry="18"/>
<text text-anchor="middle" x="113.79" y="-275.3" font-family="Times,serif" font-size="14.00">S3</text>
</g>
<!-- GeoServer&#45;&gt;EC2 -->
<g id="edge12" class="edge">
<title>GeoServer&#45;&gt;EC2</title>
<path fill="none" stroke="lightblue" stroke-dasharray="5,2" d="M62.03,-348.01C67.79,-304.1 83.21,-186.6 90.23,-133.15"/>
<polygon fill="lightblue" stroke="lightblue" points="93.72,-133.43 91.56,-123.06 86.78,-132.52 93.72,-133.43"/>
<text text-anchor="middle" x="104.29" y="-231.8" font-family="Times,serif" font-size="14.00">require</text>
</g>
<!-- GeoServer&#45;&gt;S3 -->
<g id="edge10" class="edge">
<title>GeoServer&#45;&gt;S3</title>
<path fill="none" stroke="lightblue" stroke-dasharray="5,2" d="M70.46,-348.21C78.38,-335.74 89.3,-318.56 98.19,-304.56"/>
<polygon fill="lightblue" stroke="lightblue" points="101.29,-306.21 103.7,-295.9 95.38,-302.46 101.29,-306.21"/>
<text text-anchor="middle" x="117.29" y="-318.8" font-family="Times,serif" font-size="14.00">require</text>
</g>
</g>
</svg>
